<?xml version="1.0" encoding="UTF-8"?>
<svg width="586px" height="376px" viewBox="0 0 586 376" version="1.1" xmlns="http://www.w3.org/2000/svg" xmlns:xlink="http://www.w3.org/1999/xlink">
    <!-- Generator: Sketch 50.2 (55047) - http://www.bohemiancoding.com/sketch -->
    <title>Abstract Wave Lines Vector Art</title>
    <desc>Created with Sketch.</desc>
    <defs>
        <polygon id="path-1" points="0.06 0.073 585.63 0.073 585.63 284 0.06 284"></polygon>
        <path d="M585.63,256.247 L585.63,269.861 C387.021172,248.666832 231.372915,-14.882425 0.06,50.0641467 L0.06,7.42352868 C227.946556,-47.5122654 384.946612,230.133292 585.63,256.247 Z" id="path-3"></path>
        <linearGradient x1="47.5799648%" y1="33.1807201%" x2="-21.5521628%" y2="11.3833468%" id="linearGradient-5">
            <stop stop-color="#00AAD2" offset="0%"></stop>
            <stop stop-color="#0970B4" offset="100%"></stop>
        </linearGradient>
        <path d="M585.63,230.861 L585.63,239.362 C383.530119,221.020644 223.135759,-39.7242447 0.06,26.2392506 L0.06,11.0641466 C231.372915,-53.882425 387.021172,209.666832 585.63,230.861 Z" id="path-6"></path>
        <path d="M203.327,0.541 C340.202,74.014 451.923,220.031 585.63,244.431 L585.63,257.247 C384.946612,231.133292 227.946556,-46.5122654 0.06,8.42352873 L0.06,0.541 L203.327,0.541 Z" id="path-8"></path>
        <linearGradient x1="-3.10143962%" y1="20.0968947%" x2="135.35357%" y2="47.7827406%" id="linearGradient-10">
            <stop stop-color="#66B8DC" offset="0%"></stop>
            <stop stop-color="#BEE1E7" offset="100%"></stop>
        </linearGradient>
        <polygon id="path-11" points="0.06 0.672 585.63 0.672 585.63 247.167 0.06 247.167"></polygon>
    </defs>
    <g id="Abstract-Wave-Lines-Vector-Art" stroke="none" stroke-width="1" fill="none" fill-rule="evenodd">
        <polygon id="Fill-1" points="194.159 308.024 363.216 308.024 363.216 45.393 194.159 45.393"></polygon>
        <g id="Group-40" transform="translate(0.000000, 92.000000)">
            <mask id="mask-2" fill="white">
                <use xlink:href="#path-1"></use>
            </mask>
            <g id="Clip-4"></g>
            <path d="M585.63,21.313 C479.522,177.591 387.153,232.368 302.081,232.351 C195.03,232.522 98.693,145.908 0,64.836 L0,67.939 C98.085,148.623 194.479,234.489 302.081,234.664 C387.784,234.635 480.123,179.836 585.63,25.399 L585.63,21.313" id="Fill-3" fill="#58B7DD" mask="url(#mask-2)"></path>
            <path d="M585.63,22.665 C478.187,181.257 384.84,236.48 298.862,236.458 C193.075,236.616 97.688,153.091 0,74.91 L0,77.763 C97.126,155.596 192.563,238.458 298.862,238.618 C385.425,238.598 478.752,183.33 585.63,26.468 L585.63,22.665" id="Fill-5" fill="#50AAD4" mask="url(#mask-2)"></path>
            <path d="M585.63,24.021 C476.8,185.019 382.446,240.692 295.545,240.674 C191.042,240.812 96.649,160.373 0,85.067 L0,87.688 C96.137,162.685 190.58,242.537 295.545,242.672 C382.989,242.65 477.323,186.95 585.63,27.579 L585.63,24.021" id="Fill-6" fill="#489CCB" mask="url(#mask-2)"></path>
            <path d="M585.63,25.374 C475.363,188.852 379.966,244.987 292.111,244.974 C188.944,245.1 95.567,167.757 0,95.321 L0,97.698 C95.113,169.864 188.524,246.693 292.111,246.814 C380.471,246.801 475.853,190.624 585.63,28.648 L585.63,25.374" id="Fill-7" fill="#408FC3" mask="url(#mask-2)"></path>
            <path d="M585.63,26.716 C473.874,192.769 377.402,249.395 288.549,249.379 C186.761,249.488 94.451,175.247 0,105.666 L0,107.818 C94.039,177.164 186.387,250.953 288.549,251.056 C377.861,251.049 474.32,194.398 585.63,29.721 L585.63,26.716" id="Fill-8" fill="#3881BA" mask="url(#mask-2)"></path>
            <path d="M585.63,28.046 C472.33,196.788 374.745,253.898 284.866,253.891 C184.501,253.982 93.292,182.845 0,116.099 L0,118.023 C92.93,184.563 184.167,255.315 284.866,255.411 C375.154,255.397 472.734,198.264 585.63,30.782 L585.63,28.046" id="Fill-9" fill="#3074B1" mask="url(#mask-2)"></path>
            <path d="M585.63,29.399 C470.714,200.915 371.986,258.52 281.054,258.507 C182.157,258.588 92.09,190.547 0,126.624 L0,128.331 C91.771,192.084 181.865,259.795 281.054,259.873 C372.355,259.865 471.083,202.248 585.63,31.859 L585.63,29.399" id="Fill-10" fill="#2866A8" mask="url(#mask-2)"></path>
            <path d="M585.63,30.733 C469.05,205.145 369.13,263.237 277.089,263.229 C179.719,263.302 90.84,198.362 0,137.231 L0,138.726 C90.57,199.708 179.469,264.374 277.089,264.438 C369.453,264.431 469.378,206.322 585.63,32.924 L585.63,30.733" id="Fill-11" fill="#20599F" mask="url(#mask-2)"></path>
            <path d="M585.63,32.073 C467.311,209.505 366.165,268.101 272.985,268.093 C177.194,268.145 89.546,206.292 0,147.946 L0,149.23 C89.315,207.452 176.975,269.079 272.985,269.136 C366.446,269.128 467.591,210.509 585.63,33.965 L585.63,32.073" id="Fill-12" fill="#184B96" mask="url(#mask-2)"></path>
            <path d="M585.63,33.426 C465.493,213.979 363.081,273.07 268.731,273.062 C174.569,273.112 88.199,214.34 0,158.746 L0,159.827 C88.01,215.317 174.388,273.913 268.731,273.963 C363.32,273.956 465.74,214.842 585.63,35.045 L585.63,33.426" id="Fill-13" fill="#103E8E" mask="url(#mask-2)"></path>
            <path d="M585.63,34.77 C463.606,218.597 359.891,278.186 264.314,278.178 C171.832,278.209 86.801,222.501 0,169.643 L0,170.518 C86.651,223.304 171.692,278.879 264.314,278.913 C360.082,278.906 463.808,219.294 585.63,36.104 L585.63,34.77" id="Fill-14" fill="#083085" mask="url(#mask-2)"></path>
            <path d="M585.63,36.156 C461.641,223.379 356.563,283.435 259.727,283.427 C168.99,283.45 85.342,230.785 0,180.626 L0,181.309 C85.23,231.406 168.878,283.975 259.727,284 C356.714,284 461.797,223.927 585.63,37.203 L585.63,36.156" id="Fill-15" fill="#00237C" mask="url(#mask-2)"></path>
            <path d="M585.63,22.593 C557.819,20.276 530.862,19.138 504.8,19.138 C272.688,19.145 108.772,105.812 0,198.019 L0,199.17 C108.637,106.895 272.55,20.039 504.8,20.039 C530.862,20.039 557.815,21.175 585.63,23.492 L585.63,22.593" id="Fill-16" fill="#4AAD00" mask="url(#mask-2)"></path>
            <path d="M585.63,25.756 C559.154,23.66 533.469,22.626 508.607,22.626 C273.404,22.633 108.791,111.069 0,205.52 L0,206.713 C108.649,112.178 273.235,23.523 508.607,23.519 C533.474,23.519 559.154,24.55 585.63,26.647 L585.63,25.756" id="Fill-17" fill="#43AD13" mask="url(#mask-2)"></path>
            <path d="M585.63,28.89 C560.476,27.003 536.034,26.052 512.357,26.052 C274.082,26.056 108.795,116.202 0,212.875 L0,214.079 C108.653,117.323 273.897,26.945 512.357,26.937 C536.034,26.937 560.476,27.891 585.63,29.783 L585.63,28.89" id="Fill-18" fill="#3DAC26" mask="url(#mask-2)"></path>
            <path d="M585.63,31.978 C561.773,30.283 538.556,29.413 516.045,29.413 C274.729,29.416 108.795,121.22 0,220.066 L0,221.271 C108.649,122.339 274.552,30.31 516.045,30.302 C538.551,30.302 561.769,31.174 585.63,32.87 L585.63,31.978" id="Fill-19" fill="#36AC3A" mask="url(#mask-2)"></path>
            <path d="M585.63,35.019 C563.044,33.507 541.03,32.72 519.664,32.72 C275.36,32.724 108.783,126.104 0,227.083 L0,228.277 C108.642,127.217 275.187,33.613 519.664,33.609 C541.026,33.609 563.044,34.398 585.63,35.911 L585.63,35.019" id="Fill-20" fill="#2FAC4D" mask="url(#mask-2)"></path>
            <path d="M585.63,38.013 C564.303,36.672 543.479,35.961 523.248,35.961 C275.995,35.969 108.78,130.848 0,233.907 L0,235.1 C108.629,131.96 275.83,36.866 523.248,36.862 C543.475,36.862 564.298,37.573 585.63,38.913 L585.63,38.013" id="Fill-21" fill="#28AC60" mask="url(#mask-2)"></path>
            <path d="M585.63,40.974 C565.534,39.794 545.884,39.165 526.771,39.165 C276.626,39.172 108.775,135.469 0,240.555 L0,241.777 C108.618,136.597 276.438,40.065 526.771,40.058 C545.881,40.058 565.531,40.688 585.63,41.873 L585.63,40.974" id="Fill-22" fill="#22AB73" mask="url(#mask-2)"></path>
            <path d="M585.63,43.896 C566.751,42.864 548.268,42.31 530.263,42.31 C277.277,42.317 108.775,139.952 0,247.011 L0,248.279 C108.614,141.109 277.054,43.214 530.263,43.207 C548.268,43.207 566.751,43.761 585.63,44.795 L585.63,43.896" id="Fill-23" fill="#1BAB86" mask="url(#mask-2)"></path>
            <path d="M585.63,46.804 C567.948,45.903 550.609,45.413 533.7,45.413 C277.909,45.416 108.78,144.327 0,253.316 L0,254.584 C108.61,145.483 277.689,46.31 533.7,46.302 C550.609,46.302 567.948,46.792 585.63,47.693 L585.63,46.804" id="Fill-24" fill="#14AB99" mask="url(#mask-2)"></path>
            <path d="M585.63,49.678 C569.133,48.893 552.934,48.458 537.119,48.458 C278.563,48.45 108.783,148.589 0,259.461 L0,260.692 C108.622,149.723 278.344,49.359 537.119,49.355 C552.931,49.355 569.13,49.794 585.63,50.577 L585.63,49.678" id="Fill-25" fill="#0DABAD" mask="url(#mask-2)"></path>
            <path d="M585.63,52.517 C570.301,51.838 555.225,51.453 540.491,51.453 C279.221,51.445 108.807,152.728 0,265.422 L0,266.676 C108.637,153.87 278.983,52.358 540.491,52.354 C555.225,52.354 570.301,52.739 585.63,53.416 L585.63,52.517" id="Fill-26" fill="#07AAC0" mask="url(#mask-2)"></path>
            <path d="M585.63,55.324 C571.456,54.743 557.499,54.41 543.84,54.41 C279.911,54.41 108.841,156.733 0,271.187 L0,272.475 C108.66,157.897 279.646,55.314 543.84,55.31 C557.496,55.31 571.456,55.644 585.63,56.223 L585.63,55.324" id="Fill-27" fill="#00AAD3" mask="url(#mask-2)"></path>
            <path d="M585.63,13.246 C522.956,4.143 464.72,0.073 410.762,0.073 C227.614,0.069 93.454,46.571 0,99.533 L0,100.558 C93.35,47.563 227.492,0.967 410.762,0.963 C464.713,0.963 522.948,5.036 585.63,14.149 L585.63,13.246" id="Fill-28" fill="#BFE2E7" mask="url(#mask-2)"></path>
            <path d="M585.63,16.081 C526.001,7.75 470.405,3.985 418.723,3.985 C231.099,3.985 94.578,52.995 0,108.63 L0,109.672 C94.47,54 230.96,4.882 418.723,4.878 C470.397,4.878 525.993,8.644 585.63,16.982 L585.63,16.081" id="Fill-29" fill="#AEDDE5" mask="url(#mask-2)"></path>
            <path d="M585.63,18.88 C528.926,11.267 475.892,7.804 426.426,7.804 C234.417,7.8 95.641,59.336 0,117.655 L0,118.701 C95.525,60.342 234.275,8.697 426.426,8.693 C475.888,8.693 528.918,12.158 585.63,19.777 L585.63,18.88" id="Fill-30" fill="#9CD8E3" mask="url(#mask-2)"></path>
            <path d="M585.63,21.69 C531.749,14.741 481.181,11.531 433.883,11.531 C237.586,11.531 96.637,65.59 0,126.601 L0,127.656 C96.522,66.604 237.451,12.436 433.883,12.432 C481.174,12.432 531.744,15.641 585.63,22.593 L585.63,21.69" id="Fill-31" fill="#8BD3E2" mask="url(#mask-2)"></path>
            <path d="M585.63,24.485 C534.467,18.154 486.282,15.184 441.097,15.184 C240.62,15.181 97.584,71.757 0,135.464 L0,136.527 C97.461,72.779 240.47,16.081 441.097,16.081 C486.274,16.081 534.459,19.052 585.63,25.39 L585.63,24.485" id="Fill-32" fill="#7ACEE0" mask="url(#mask-2)"></path>
            <path d="M585.63,27.237 C537.08,21.482 491.226,18.749 448.101,18.749 C243.514,18.745 98.478,77.839 0,144.244 L0,145.312 C98.358,78.861 243.373,19.646 448.101,19.646 C491.218,19.646 537.077,22.379 585.63,28.141 L585.63,27.237" id="Fill-33" fill="#68C9DE" mask="url(#mask-2)"></path>
            <path d="M585.63,29.96 C539.602,24.739 496.007,22.245 454.884,22.245 C246.286,22.241 99.324,83.84 0,152.941 L0,154.016 C99.198,84.867 246.14,23.138 454.884,23.134 C495.999,23.134 539.599,25.632 585.63,30.858 L585.63,29.96" id="Fill-34" fill="#57C3DC" mask="url(#mask-2)"></path>
            <path d="M585.63,32.645 C542.04,27.923 500.643,25.663 461.479,25.663 C248.954,25.66 100.129,89.759 0,161.556 L0,162.641 C99.999,90.79 248.8,26.557 461.479,26.553 C500.639,26.553 542.035,28.816 585.63,33.542 L585.63,32.645" id="Fill-35" fill="#45BEDA" mask="url(#mask-2)"></path>
            <path d="M585.63,35.295 C544.392,31.04 505.135,29.009 467.869,29.009 C251.502,29.009 100.888,95.59 0,170.086 L0,171.181 C100.753,96.634 251.349,29.91 467.869,29.905 C505.126,29.905 544.384,31.938 585.63,36.198 L585.63,35.295" id="Fill-36" fill="#34B9D8" mask="url(#mask-2)"></path>
            <path d="M585.63,37.979 C546.666,34.146 509.474,32.292 474.09,32.292 C253.955,32.292 101.611,101.346 0,178.528 L0,179.635 C101.473,102.397 253.797,33.193 474.09,33.19 C509.474,33.19 546.662,35.041 585.63,38.877 L585.63,37.979" id="Fill-37" fill="#23B4D7" mask="url(#mask-2)"></path>
            <path d="M585.63,40.65 C548.873,37.205 513.688,35.522 480.138,35.522 C256.311,35.519 102.297,107.026 0,186.893 L0,188.009 C102.158,108.084 256.146,36.416 480.138,36.412 C513.682,36.412 548.868,38.098 585.63,41.548 L585.63,40.65" id="Fill-38" fill="#11AFD5" mask="url(#mask-2)"></path>
            <path d="M585.63,43.284 C551.005,40.2 517.781,38.679 486.021,38.679 C258.571,38.679 102.947,112.632 0,195.179 L0,196.302 C102.809,113.694 258.405,39.584 486.021,39.58 C517.773,39.58 551.001,41.099 585.63,44.183 L585.63,43.284" id="Fill-39" fill="#00AAD3" mask="url(#mask-2)"></path>
        </g>
        <g id="Group-43" transform="translate(0.000000, 1.000000)">
            <mask id="mask-4" fill="white">
                <use xlink:href="#path-3"></use>
            </mask>
            <g id="Clip-42"></g>
            <polygon id="Fill-41" fill="url(#linearGradient-5)" mask="url(#mask-4)" points="0.06 375 585.63 375 585.63 -0.459 0.06 -0.459"></polygon>
        </g>
        <g id="Group-46" transform="translate(0.000000, 40.000000)">
            <mask id="mask-7" fill="white">
                <use xlink:href="#path-6"></use>
            </mask>
            <g id="Clip-45"></g>
            <polygon id="Fill-44" mask="url(#mask-7)" points="0.06 336 585.63 336 585.63 -39.459 0.06 -39.459"></polygon>
        </g>
        <g id="Group-49">
            <mask id="mask-9" fill="white">
                <use xlink:href="#path-8"></use>
            </mask>
            <g id="Clip-48"></g>
            <polygon id="Fill-47" fill="url(#linearGradient-10)" mask="url(#mask-9)" points="0.06 376 585.63 376 585.63 0.541 0.06 0.541"></polygon>
        </g>
        <g id="Group-63" transform="translate(0.000000, 82.000000)">
            <mask id="mask-12" fill="white">
                <use xlink:href="#path-11"></use>
            </mask>
            <g id="Clip-51"></g>
            <path d="M585.63,212.065 C405.525,200.578 254.255,0.815 62.956,0.672 C42.456,0.672 21.494,3.015 0,8.104 L0,9.977 C21.505,4.853 42.463,2.497 62.956,2.494 C253.069,2.347 404.271,202.155 585.63,213.866 L585.63,212.065" id="Fill-50" fill="#FFFFFF" mask="url(#mask-12)"></path>
            <path d="M585.63,214.99 C406.368,205.702 255.799,10.955 65.743,10.82 C44.357,10.82 22.471,13.315 0,18.807 L0,20.555 C22.483,15.027 44.365,12.522 65.743,12.522 C254.698,12.388 405.21,207.175 585.63,216.675 L585.63,214.99" id="Fill-52" fill="#F8FCFD" mask="url(#mask-12)"></path>
            <path d="M585.63,217.975 C407.204,210.899 257.338,21.086 68.507,20.968 C46.24,20.968 23.442,23.633 0,29.542 L0,31.165 C23.453,25.219 46.255,22.543 68.507,22.54 C256.327,22.418 406.146,212.257 585.63,219.535 L585.63,217.975" id="Fill-53" fill="#F0F9FA" mask="url(#mask-12)"></path>
            <path d="M585.63,220.979 C408.034,216.114 258.86,31.223 71.256,31.117 C48.127,31.117 24.412,33.966 0,40.292 L0,41.79 C24.423,35.43 48.134,32.572 71.256,32.568 C257.951,32.466 407.069,217.361 585.63,222.413 L585.63,220.979" id="Fill-54" fill="#E9F6F8" mask="url(#mask-12)"></path>
            <path d="M585.63,223.988 C408.858,221.333 260.389,41.361 73.993,41.272 C50.002,41.267 25.378,44.302 0,51.047 L0,52.422 C25.389,45.642 50.009,42.597 73.993,42.593 C259.552,42.504 407.989,222.476 585.63,225.304 L585.63,223.988" id="Fill-55" fill="#E2F3F6" mask="url(#mask-12)"></path>
            <path d="M585.63,227.052 C409.672,226.62 261.894,51.49 76.711,51.413 C51.865,51.413 26.336,54.635 0,61.803 L0,63.043 C26.348,55.842 51.872,52.614 76.711,52.61 C261.15,52.537 408.895,227.652 585.63,228.252 L585.63,227.052" id="Fill-56" fill="#DBF0F3" mask="url(#mask-12)"></path>
            <path d="M585.63,230.064 C584.749,230.074 583.859,230.144 582.978,230.144 C409.002,230.216 262.467,61.622 79.406,61.56 C53.712,61.56 27.291,64.953 0,72.539 L0,73.659 C27.303,66.042 53.72,62.639 79.406,62.639 C261.813,62.569 408.316,231.144 582.978,231.222 L583.001,231.222 C583.874,231.222 584.757,231.151 585.63,231.144 L585.63,230.064" id="Fill-57" fill="#D3EEF1" mask="url(#mask-12)"></path>
            <path d="M585.63,233.204 C583.563,233.254 581.496,233.304 579.436,233.304 C407.819,233.361 262.721,71.763 82.074,71.705 C55.548,71.705 28.242,75.281 0,83.291 L0,84.274 C28.253,76.238 55.552,72.656 82.074,72.652 C262.16,72.594 407.227,234.192 579.436,234.251 C581.496,234.251 583.563,234.2 585.63,234.153 L585.63,233.204" id="Fill-58" fill="#CCEBEE" mask="url(#mask-12)"></path>
            <path d="M585.63,236.329 C582.334,236.454 579.048,236.53 575.771,236.53 C406.542,236.579 262.906,81.895 84.715,81.846 C57.366,81.846 29.185,85.578 0,93.999 L0,94.861 C29.193,86.415 57.37,82.673 84.715,82.673 C262.437,82.626 406.049,237.304 575.771,237.357 L575.793,237.357 C579.063,237.357 582.343,237.284 585.63,237.16 L585.63,236.329" id="Fill-59" fill="#C5E8EC" mask="url(#mask-12)"></path>
            <path d="M585.63,239.444 C581.061,239.679 576.505,239.841 571.975,239.841 C405.179,239.883 263.049,92.027 87.336,91.998 C59.171,91.991 30.125,95.899 0,104.73 L0,105.46 C30.128,96.606 59.175,92.697 87.336,92.697 C262.66,92.655 404.771,240.506 571.975,240.549 C576.502,240.549 581.061,240.387 585.63,240.152 L585.63,239.444" id="Fill-60" fill="#BEE5EA" mask="url(#mask-12)"></path>
            <path d="M585.63,242.616 C579.739,242.991 573.873,243.231 568.048,243.231 C403.731,243.264 263.122,102.168 89.927,102.134 C60.954,102.134 31.053,106.182 0,115.409 L0,116.012 C31.056,106.767 60.958,102.715 89.927,102.715 C262.814,102.685 403.4,243.778 568.048,243.81 C573.873,243.81 579.739,243.569 585.63,243.194 L585.63,242.616" id="Fill-61" fill="#B6E2E7" mask="url(#mask-12)"></path>
            <path d="M585.63,245.817 C578.362,246.387 571.136,246.713 563.967,246.713 C402.169,246.736 263.133,112.301 92.484,112.274 C62.717,112.274 31.968,116.475 0,126.091 L0,126.562 C31.972,116.931 62.721,112.725 92.484,112.725 C262.891,112.709 401.918,247.144 563.967,247.167 C571.136,247.167 578.362,246.841 585.63,246.271 L585.63,245.817" id="Fill-62" fill="#AFDFE5" mask="url(#mask-12)"></path>
        </g>
        <path d="M406.984,0.541 L404.501,0.541 C463.007,72.355 513.72,145.114 585.63,172.324 L585.63,170.512 C515.151,143.562 464.966,71.787 406.984,0.541" id="Fill-64" fill="#FFFFFF"></path>
        <path d="M397.045,0.541 L394.68,0.541 C457.31,73.256 510.705,148.629 585.63,175.818 L585.63,174.124 C512.058,147.177 459.157,72.752 397.045,0.541" id="Fill-65" fill="#F8FCFD"></path>
        <path d="M386.321,0.541 L384.082,0.541 C451.157,74.068 507.476,152.197 585.63,179.317 L585.63,177.767 C508.749,150.862 452.901,73.631 386.321,0.541" id="Fill-66" fill="#F0F9FA"></path>
        <path d="M374.753,0.541 L372.641,0.541 C444.52,74.781 504.003,155.886 585.63,182.891 L585.63,181.456 C505.208,154.656 446.152,74.411 374.753,0.541" id="Fill-67" fill="#E9F6F8"></path>
        <path d="M362.265,0.541 L360.274,0.541 C437.348,75.371 500.272,159.663 585.63,186.503 L585.63,185.198 C501.396,158.544 438.872,75.061 362.265,0.541" id="Fill-68" fill="#E2F3F6"></path>
        <path d="M346.912,0.541 C429.594,75.803 496.261,163.587 585.63,190.211 L585.63,189.029 C497.297,162.577 430.999,75.556 348.756,0.541 L346.912,0.541" id="Fill-69" fill="#DBF0F3"></path>
        <path d="M332.448,0.541 C421.202,76.049 491.934,167.676 585.63,194.023 L585.63,192.962 C492.885,166.77 422.487,75.858 334.15,0.541 L332.448,0.541" id="Fill-70" fill="#D3EEF1"></path>
        <path d="M316.78,0.541 C412.092,76.031 487.257,171.83 585.63,197.829 L585.63,196.897 C488.118,171.043 413.255,75.906 318.332,0.541 L316.78,0.541" id="Fill-71" fill="#CCEBEE"></path>
        <path d="M299.749,0.541 C402.169,75.703 482.193,176.105 585.63,201.688 L585.63,200.877 C482.972,175.412 403.22,75.627 301.181,0.541 L299.749,0.541" id="Fill-72" fill="#C5E8EC"></path>
        <path d="M281.177,0.541 C391.308,74.984 476.67,180.562 585.63,205.648 L585.63,204.951 C477.354,179.975 392.228,74.957 282.433,0.541 L281.177,0.541" id="Fill-73" fill="#BEE5EA"></path>
        <path d="M260.858,0.541 C379.393,73.75 470.625,185.204 585.63,209.713 L585.63,209.136 C471.214,184.723 380.197,73.77 261.967,0.541 L260.858,0.541" id="Fill-74" fill="#B6E2E7"></path>
        <path d="M238.522,0.541 C366.234,71.828 463.969,190.041 585.63,213.88 L585.63,213.434 C464.457,189.661 366.888,71.886 239.449,0.541 L238.522,0.541" id="Fill-75" fill="#AFDFE5"></path>
    </g>
</svg>