<?xml version="1.0" encoding="UTF-8"?>
<svg width="586px" height="248px" viewBox="0 0 586 248" version="1.1" xmlns="http://www.w3.org/2000/svg" xmlns:xlink="http://www.w3.org/1999/xlink">
    <!-- Generator: Sketch 50.2 (55047) - http://www.bohemiancoding.com/sketch -->
    <title>abstract-waves-2</title>
    <desc>Created with Sketch.</desc>
    <defs>
        <polygon id="path-1" points="0.06 0.672 585.63 0.672 585.63 247.167 0.06 247.167"></polygon>
    </defs>
    <g id="Page-1" stroke="none" stroke-width="1" fill="none" fill-rule="evenodd">
        <g id="Abstract-Wave-Lines-Vector-Art" transform="translate(0.000000, -82.000000)">
            <g id="abstract-waves-2" transform="translate(0.000000, 82.000000)">
                <mask id="mask-2" fill="white">
                    <use xlink:href="#path-1"></use>
                </mask>
                <g id="Clip-51"></g>
                <path d="M585.63,212.065 C405.525,200.578 254.255,0.815 62.956,0.672 C42.456,0.672 21.494,3.015 0,8.104 L0,9.977 C21.505,4.853 42.463,2.497 62.956,2.494 C253.069,2.347 404.271,202.155 585.63,213.866 L585.63,212.065" id="Fill-50" fill="#FFFFFF" mask="url(#mask-2)"></path>
                <path d="M585.63,214.99 C406.368,205.702 255.799,10.955 65.743,10.82 C44.357,10.82 22.471,13.315 0,18.807 L0,20.555 C22.483,15.027 44.365,12.522 65.743,12.522 C254.698,12.388 405.21,207.175 585.63,216.675 L585.63,214.99" id="Fill-52" fill="#F8FCFD" mask="url(#mask-2)"></path>
                <path d="M585.63,217.975 C407.204,210.899 257.338,21.086 68.507,20.968 C46.24,20.968 23.442,23.633 0,29.542 L0,31.165 C23.453,25.219 46.255,22.543 68.507,22.54 C256.327,22.418 406.146,212.257 585.63,219.535 L585.63,217.975" id="Fill-53" fill="#F0F9FA" mask="url(#mask-2)"></path>
                <path d="M585.63,220.979 C408.034,216.114 258.86,31.223 71.256,31.117 C48.127,31.117 24.412,33.966 0,40.292 L0,41.79 C24.423,35.43 48.134,32.572 71.256,32.568 C257.951,32.466 407.069,217.361 585.63,222.413 L585.63,220.979" id="Fill-54" fill="#E9F6F8" mask="url(#mask-2)"></path>
                <path d="M585.63,223.988 C408.858,221.333 260.389,41.361 73.993,41.272 C50.002,41.267 25.378,44.302 0,51.047 L0,52.422 C25.389,45.642 50.009,42.597 73.993,42.593 C259.552,42.504 407.989,222.476 585.63,225.304 L585.63,223.988" id="Fill-55" fill="#E2F3F6" mask="url(#mask-2)"></path>
                <path d="M585.63,227.052 C409.672,226.62 261.894,51.49 76.711,51.413 C51.865,51.413 26.336,54.635 0,61.803 L0,63.043 C26.348,55.842 51.872,52.614 76.711,52.61 C261.15,52.537 408.895,227.652 585.63,228.252 L585.63,227.052" id="Fill-56" fill="#DBF0F3" mask="url(#mask-2)"></path>
                <path d="M585.63,230.064 C584.749,230.074 583.859,230.144 582.978,230.144 C409.002,230.216 262.467,61.622 79.406,61.56 C53.712,61.56 27.291,64.953 0,72.539 L0,73.659 C27.303,66.042 53.72,62.639 79.406,62.639 C261.813,62.569 408.316,231.144 582.978,231.222 L583.001,231.222 C583.874,231.222 584.757,231.151 585.63,231.144 L585.63,230.064" id="Fill-57" fill="#D3EEF1" mask="url(#mask-2)"></path>
                <path d="M585.63,233.204 C583.563,233.254 581.496,233.304 579.436,233.304 C407.819,233.361 262.721,71.763 82.074,71.705 C55.548,71.705 28.242,75.281 0,83.291 L0,84.274 C28.253,76.238 55.552,72.656 82.074,72.652 C262.16,72.594 407.227,234.192 579.436,234.251 C581.496,234.251 583.563,234.2 585.63,234.153 L585.63,233.204" id="Fill-58" fill="#CCEBEE" mask="url(#mask-2)"></path>
                <path d="M585.63,236.329 C582.334,236.454 579.048,236.53 575.771,236.53 C406.542,236.579 262.906,81.895 84.715,81.846 C57.366,81.846 29.185,85.578 0,93.999 L0,94.861 C29.193,86.415 57.37,82.673 84.715,82.673 C262.437,82.626 406.049,237.304 575.771,237.357 L575.793,237.357 C579.063,237.357 582.343,237.284 585.63,237.16 L585.63,236.329" id="Fill-59" fill="#C5E8EC" mask="url(#mask-2)"></path>
                <path d="M585.63,239.444 C581.061,239.679 576.505,239.841 571.975,239.841 C405.179,239.883 263.049,92.027 87.336,91.998 C59.171,91.991 30.125,95.899 0,104.73 L0,105.46 C30.128,96.606 59.175,92.697 87.336,92.697 C262.66,92.655 404.771,240.506 571.975,240.549 C576.502,240.549 581.061,240.387 585.63,240.152 L585.63,239.444" id="Fill-60" fill="#BEE5EA" mask="url(#mask-2)"></path>
                <path d="M585.63,242.616 C579.739,242.991 573.873,243.231 568.048,243.231 C403.731,243.264 263.122,102.168 89.927,102.134 C60.954,102.134 31.053,106.182 0,115.409 L0,116.012 C31.056,106.767 60.958,102.715 89.927,102.715 C262.814,102.685 403.4,243.778 568.048,243.81 C573.873,243.81 579.739,243.569 585.63,243.194 L585.63,242.616" id="Fill-61" fill="#B6E2E7" mask="url(#mask-2)"></path>
                <path d="M585.63,245.817 C578.362,246.387 571.136,246.713 563.967,246.713 C402.169,246.736 263.133,112.301 92.484,112.274 C62.717,112.274 31.968,116.475 0,126.091 L0,126.562 C31.972,116.931 62.721,112.725 92.484,112.725 C262.891,112.709 401.918,247.144 563.967,247.167 C571.136,247.167 578.362,246.841 585.63,246.271 L585.63,245.817" id="Fill-62" fill="#AFDFE5" mask="url(#mask-2)"></path>
            </g>
        </g>
    </g>
</svg>