<?xml version="1.0" encoding="UTF-8"?>
<svg width="586px" height="273px" viewBox="0 0 586 273" version="1.1" xmlns="http://www.w3.org/2000/svg" xmlns:xlink="http://www.w3.org/1999/xlink">
    <!-- Generator: Sketch 50.2 (55047) - http://www.bohemiancoding.com/sketch -->
    <title>abstract-waves-b</title>
    <desc>Created with Sketch.</desc>
    <defs></defs>
    <g id="Page-1" stroke="none" stroke-width="1" fill="none" fill-rule="evenodd">
        <g id="Abstract-Wave-Lines-Vector-Art" transform="translate(0.000000, -92.000000)">
            <g id="abstract-waves-4" transform="translate(0.000000, 92.000000)">
                <g id="abstract-waves-b">
                    <path d="M585.63,31.978 C561.773,30.283 538.556,29.413 516.045,29.413 C274.729,29.416 108.795,121.22 0,220.066 L0,221.271 C108.649,122.339 274.552,30.31 516.045,30.302 C538.551,30.302 561.769,31.174 585.63,32.87 L585.63,31.978" id="Fill-19" fill="#36AC3A"></path>
                    <path d="M585.63,35.019 C563.044,33.507 541.03,32.72 519.664,32.72 C275.36,32.724 108.783,126.104 0,227.083 L0,228.277 C108.642,127.217 275.187,33.613 519.664,33.609 C541.026,33.609 563.044,34.398 585.63,35.911 L585.63,35.019" id="Fill-20" fill="#2FAC4D"></path>
                    <path d="M585.63,38.013 C564.303,36.672 543.479,35.961 523.248,35.961 C275.995,35.969 108.78,130.848 0,233.907 L0,235.1 C108.629,131.96 275.83,36.866 523.248,36.862 C543.475,36.862 564.298,37.573 585.63,38.913 L585.63,38.013" id="Fill-21" fill="#28AC60"></path>
                    <path d="M585.63,40.974 C565.534,39.794 545.884,39.165 526.771,39.165 C276.626,39.172 108.775,135.469 0,240.555 L0,241.777 C108.618,136.597 276.438,40.065 526.771,40.058 C545.881,40.058 565.531,40.688 585.63,41.873 L585.63,40.974" id="Fill-22" fill="#22AB73"></path>
                    <path d="M585.63,43.896 C566.751,42.864 548.268,42.31 530.263,42.31 C277.277,42.317 108.775,139.952 0,247.011 L0,248.279 C108.614,141.109 277.054,43.214 530.263,43.207 C548.268,43.207 566.751,43.761 585.63,44.795 L585.63,43.896" id="Fill-23" fill="#1BAB86"></path>
                    <path d="M585.63,46.804 C567.948,45.903 550.609,45.413 533.7,45.413 C277.909,45.416 108.78,144.327 0,253.316 L0,254.584 C108.61,145.483 277.689,46.31 533.7,46.302 C550.609,46.302 567.948,46.792 585.63,47.693 L585.63,46.804" id="Fill-24" fill="#14AB99"></path>
                    <path d="M585.63,49.678 C569.133,48.893 552.934,48.458 537.119,48.458 C278.563,48.45 108.783,148.589 0,259.461 L0,260.692 C108.622,149.723 278.344,49.359 537.119,49.355 C552.931,49.355 569.13,49.794 585.63,50.577 L585.63,49.678" id="Fill-25" fill="#0DABAD"></path>
                    <path d="M585.63,52.517 C570.301,51.838 555.225,51.453 540.491,51.453 C279.221,51.445 108.807,152.728 0,265.422 L0,266.676 C108.637,153.87 278.983,52.358 540.491,52.354 C555.225,52.354 570.301,52.739 585.63,53.416 L585.63,52.517" id="Fill-26" fill="#07AAC0"></path>
                    <path d="M585.63,55.324 C571.456,54.743 557.499,54.41 543.84,54.41 C279.911,54.41 108.841,156.733 0,271.187 L0,272.475 C108.66,157.897 279.646,55.314 543.84,55.31 C557.496,55.31 571.456,55.644 585.63,56.223 L585.63,55.324" id="Fill-27" fill="#00AAD3"></path>
                    <path d="M585.63,13.246 C522.956,4.143 464.72,0.073 410.762,0.073 C227.614,0.069 93.454,46.571 0,99.533 L0,100.558 C93.35,47.563 227.492,0.967 410.762,0.963 C464.713,0.963 522.948,5.036 585.63,14.149 L585.63,13.246" id="Fill-28" fill="#BFE2E7"></path>
                    <path d="M585.63,16.081 C526.001,7.75 470.405,3.985 418.723,3.985 C231.099,3.985 94.578,52.995 0,108.63 L0,109.672 C94.47,54 230.96,4.882 418.723,4.878 C470.397,4.878 525.993,8.644 585.63,16.982 L585.63,16.081" id="Fill-29" fill="#AEDDE5"></path>
                    <path d="M585.63,18.88 C528.926,11.267 475.892,7.804 426.426,7.804 C234.417,7.8 95.641,59.336 0,117.655 L0,118.701 C95.525,60.342 234.275,8.697 426.426,8.693 C475.888,8.693 528.918,12.158 585.63,19.777 L585.63,18.88" id="Fill-30" fill="#9CD8E3"></path>
                    <path d="M585.63,21.69 C531.749,14.741 481.181,11.531 433.883,11.531 C237.586,11.531 96.637,65.59 0,126.601 L0,127.656 C96.522,66.604 237.451,12.436 433.883,12.432 C481.174,12.432 531.744,15.641 585.63,22.593 L585.63,21.69" id="Fill-31" fill="#8BD3E2"></path>
                    <path d="M585.63,24.485 C534.467,18.154 486.282,15.184 441.097,15.184 C240.62,15.181 97.584,71.757 0,135.464 L0,136.527 C97.461,72.779 240.47,16.081 441.097,16.081 C486.274,16.081 534.459,19.052 585.63,25.39 L585.63,24.485" id="Fill-32" fill="#7ACEE0"></path>
                    <path d="M585.63,27.237 C537.08,21.482 491.226,18.749 448.101,18.749 C243.514,18.745 98.478,77.839 0,144.244 L0,145.312 C98.358,78.861 243.373,19.646 448.101,19.646 C491.218,19.646 537.077,22.379 585.63,28.141 L585.63,27.237" id="Fill-33" fill="#68C9DE"></path>
                    <path d="M585.63,29.96 C539.602,24.739 496.007,22.245 454.884,22.245 C246.286,22.241 99.324,83.84 0,152.941 L0,154.016 C99.198,84.867 246.14,23.138 454.884,23.134 C495.999,23.134 539.599,25.632 585.63,30.858 L585.63,29.96" id="Fill-34" fill="#57C3DC"></path>
                    <path d="M585.63,32.645 C542.04,27.923 500.643,25.663 461.479,25.663 C248.954,25.66 100.129,89.759 0,161.556 L0,162.641 C99.999,90.79 248.8,26.557 461.479,26.553 C500.639,26.553 542.035,28.816 585.63,33.542 L585.63,32.645" id="Fill-35" fill="#45BEDA"></path>
                    <path d="M585.63,35.295 C544.392,31.04 505.135,29.009 467.869,29.009 C251.502,29.009 100.888,95.59 0,170.086 L0,171.181 C100.753,96.634 251.349,29.91 467.869,29.905 C505.126,29.905 544.384,31.938 585.63,36.198 L585.63,35.295" id="Fill-36" fill="#34B9D8"></path>
                    <path d="M585.63,37.979 C546.666,34.146 509.474,32.292 474.09,32.292 C253.955,32.292 101.611,101.346 0,178.528 L0,179.635 C101.473,102.397 253.797,33.193 474.09,33.19 C509.474,33.19 546.662,35.041 585.63,38.877 L585.63,37.979" id="Fill-37" fill="#23B4D7"></path>
                    <path d="M585.63,40.65 C548.873,37.205 513.688,35.522 480.138,35.522 C256.311,35.519 102.297,107.026 0,186.893 L0,188.009 C102.158,108.084 256.146,36.416 480.138,36.412 C513.682,36.412 548.868,38.098 585.63,41.548 L585.63,40.65" id="Fill-38" fill="#11AFD5"></path>
                    <path d="M585.63,43.284 C551.005,40.2 517.781,38.679 486.021,38.679 C258.571,38.679 102.947,112.632 0,195.179 L0,196.302 C102.809,113.694 258.405,39.584 486.021,39.58 C517.773,39.58 551.001,41.099 585.63,44.183 L585.63,43.284" id="Fill-39" fill="#00AAD3"></path>
                </g>
            </g>
        </g>
    </g>
</svg>