<?xml version="1.0" encoding="UTF-8"?>
<svg width="1207px" height="111px" viewBox="0 0 1207 111" version="1.1" xmlns="http://www.w3.org/2000/svg" xmlns:xlink="http://www.w3.org/1999/xlink">
    <!-- Generator: Sketch 50.2 (55047) - http://www.bohemiancoding.com/sketch -->
    <title>Group</title>
    <desc>Created with Sketch.</desc>
    <defs></defs>
    <g id="Symbols" stroke="none" stroke-width="1" fill="none" fill-rule="evenodd">
        <g id="logo" transform="translate(-18.000000, -26.000000)" fill="#000000">
            <g id="Group" transform="translate(18.000000, 26.000000)">
                <path d="M38.8179272,82 C26.8738899,82 17.4183355,79.6714059 10.4509804,75.0141479 C3.48362529,70.3568899 0,64.0407687 0,56.0655949 C0,44.1028341 6.56669437,33.6013314 19.7002801,24.5607717 C32.8338659,15.520212 48.0914164,11 65.4733894,11 C77.3203207,11 86.7030466,13.2905452 93.6218487,17.8717042 C100.540651,22.4528632 104,28.6700572 104,36.5234727 C104,49.0037066 97.6032386,59.7030637 84.8095238,68.621865 C72.015809,77.5406662 56.6854301,82 38.8179272,82 Z M41.8828366,79 C54.531067,79 65.3791942,74.8128786 74.4275437,66.4385102 C83.4758931,58.0641418 88,48.0150504 88,36.2909346 C88,21.4302372 79.7544504,14 63.2631038,14 C50.6148734,14 39.742423,18.1414437 30.6454265,26.4244554 C21.54843,34.707467 17,44.6347512 17,56.2066058 C17,71.4022779 25.2941959,79 41.8828366,79 Z M172.043236,54.9770925 L170.810321,54.9770925 C157.078964,72.3257842 143.686258,81 130.631799,81 C122.895824,81 119.027894,78.1136853 119.027894,72.3409692 C119.027894,70.6916217 119.414687,68.6299683 120.188285,66.1559471 L127.223152,43.660793 C128.335198,40.1482937 128.891213,37.8575678 128.891213,36.7885463 C128.891213,34.894851 127.464914,33.9480176 124.612273,33.9480176 C119.873988,33.9480176 112.669969,37.2924776 103,43.9814978 L104.305439,39.7665198 C114.845706,32.5888041 124.346308,29 132.807531,29 C139.818259,29 143.32357,31.290726 143.32357,35.8722467 C143.32357,37.3994203 142.743381,39.9955764 141.582985,43.660793 L134.475593,66.2017621 C133.847045,68.2176312 133.532775,69.6531528 133.532775,70.50837 C133.532775,72.9823912 134.959075,74.2193833 137.811715,74.2193833 C141.437954,74.2193833 146.937667,71.4476048 154.311018,65.9039648 C161.68437,60.3603247 168.465334,53.9081132 174.654114,46.5471366 L179.875872,30.0995595 L195.251046,29.5497797 L189.88424,43.660793 L182.776848,66.2933921 C181.664802,69.8058913 181.108787,72.0966173 181.108787,73.1656388 C181.108787,75.0898775 182.535086,76.0519824 185.387727,76.0519824 C190.174361,76.0519824 197.378381,72.6922509 207,65.9726872 L205.694561,70.2334802 C195.105944,77.4111959 185.605342,81 177.192469,81 C170.181741,81 166.67643,78.6940025 166.67643,74.0819383 C166.67643,72.5242213 167.256619,69.9280652 168.417015,66.2933921 L172.043236,54.9770925 Z M227.517115,33.6024931 L211,33.6024931 L215.976773,30.2202216 L228.526895,30.2202216 L232.638142,17.2853186 L247.56846,15 L242.808068,30.2202216 L270,30.2202216 L264.085575,34.2423823 C257.88261,33.8157873 252.37696,33.6024931 247.56846,33.6024931 L241.726161,33.6024931 L231.91687,64.9113573 C230.907085,68.1412904 230.4022,70.4113508 230.4022,71.7216066 C230.4022,74.1288209 232.08515,75.33241 235.4511,75.33241 C240.64428,75.33241 247.736711,72.8947612 256.728606,68.0193906 L255.430318,72.2243767 C246.101828,78.0748215 237.13411,81 228.526895,81 C220.352445,81 216.265281,78.1357627 216.265281,72.4072022 C216.265281,70.3656408 216.794208,67.6537565 217.852078,64.2714681 L227.517115,33.6024931 Z M264,78.2969163 L273.484163,72.1118943 C279.758704,75.0135241 286.153814,76.4643172 292.669683,76.4643172 C296.675736,76.4643172 300.054285,75.8000066 302.80543,74.4713656 C305.556575,73.1427246 306.932127,71.5010377 306.932127,69.5462555 C306.932127,67.377669 304.205155,64.4149968 298.751131,60.6581498 L292.162896,56.076652 C285.743558,51.6173052 282.533937,47.8910576 282.533937,44.8977974 C282.533937,40.7438853 285.647028,37.0558164 291.873303,33.8334802 C298.099579,30.6111439 305.218663,29 313.230769,29 C317.622948,29 322.545976,29.5803173 328,30.7409692 L324.81448,40.8660793 L320.253394,40.8660793 L320.470588,40.0872247 C320.56712,39.8123334 320.615385,39.4916318 320.615385,39.1251101 C320.615385,35.0017415 316.416332,32.9400881 308.0181,32.9400881 C298.606288,32.9400881 293.900452,35.3224431 293.900452,40.0872247 C293.900452,42.5001589 296.699821,45.7071753 302.298643,49.70837 L308.235294,53.877533 C314.702898,58.4895972 317.936652,62.2769309 317.936652,65.2396476 C317.936652,69.3324727 314.509838,72.9823628 307.656109,76.1894273 C300.802379,79.3964918 293.007585,81 284.271493,81 C278.141749,81 271.384652,80.0989811 264,78.2969163 Z M386,65.9726872 L384.69289,70.2334802 C374.090719,77.4111959 364.577954,81 356.154312,81 C349.183021,81 345.697428,78.6940025 345.697428,74.0819383 C345.697428,72.5242213 346.254155,69.9586082 347.367625,66.385022 L352.378215,50.4414097 C353.733744,45.9209759 354.411498,42.9124891 354.411498,41.415859 C354.411498,38.8502074 352.83814,37.5674009 349.691377,37.5674009 C347.512848,37.5674009 343.615762,38.1019036 338,39.1709251 L338.871407,36.3303965 L374.381241,29 L368.86233,43.660793 L361.74584,66.2933921 C360.63237,69.8364347 360.075643,72.0966177 360.075643,73.0740088 C360.075643,75.0593344 361.503768,76.0519824 364.360061,76.0519824 C369.152823,76.0519824 376.366064,72.6922509 386,65.9726872 Z M359,22 L363.799427,15.625 L384,7 L377.839542,15.625 L359,22 Z M445.069399,55.7895329 L443.761202,55.7895329 C438.189225,63.5419634 431.57563,69.8484094 423.920219,74.7090602 C416.264807,79.569711 409.094023,82 402.40765,82 C392.135832,82 387,77.9238824 387,69.771525 C387,64.2340747 389.507352,58.4352207 394.522131,52.374789 C399.53691,46.3143572 406.017264,41.2230557 413.963388,37.1007316 C419.293105,34.36277 424.622742,32.5246717 429.952459,31.5863815 C435.282176,30.6480914 443.01015,30.1789533 453.136612,30.1789533 C455.995278,24.087758 458.97503,19.4348313 462.075956,16.2200338 C465.176883,13.0052362 469.537495,9.99813818 475.157923,7.19864941 C484.751414,2.39952581 495.338011,0 506.918033,0 C511.714778,0 516.07539,0.323013089 520,0.969048959 L510.043169,7.52166573 C504.277385,5.92195786 499.383809,5.12211593 495.362295,5.12211593 C487.609979,5.12211593 481.771604,6.91406949 477.846995,10.4980304 C473.922385,14.0819913 470.409669,20.7960491 467.308743,30.6404052 L455.898361,67.1873945 C454.735513,70.7559736 454.154098,73.0324468 454.154098,74.0168824 C454.154098,76.0165172 455.58341,77.0163196 458.442077,77.0163196 C463.287274,77.0163196 470.530735,73.632373 480.172678,66.8643782 L478.791803,71.1558807 C468.229273,78.3853297 458.732829,82 450.302186,82 C443.27665,82 439.763934,79.6773821 439.763934,75.0320765 C439.763934,73.5246595 440.345349,70.9097916 441.508197,67.1873945 L445.069399,55.7895329 Z M451,37.5570776 C444.945162,35.8523507 438.841585,35 432.689088,35 C423.850977,35 416.770829,38.500726 411.44843,45.5022831 C405.149445,53.7823854 402,61.2252333 402,67.8310502 C402,72.610374 404.27053,75 408.811659,75 C413.010983,75 419.053523,72.2450808 426.939462,66.7351598 C434.825401,61.2252388 441.746856,54.9391525 447.704036,47.8767123 L451,37.5570776 Z M547,67.3591549 L545.90411,70.8838028 C530.415448,77.627968 517.216188,81 506.305936,81 C499.389615,81 493.776277,79.4818227 489.465753,76.4454225 C485.15523,73.4090224 483,69.4800711 483,64.6584507 C483,56.0527739 488.260221,47.9583712 498.780822,40.375 C509.301422,32.7916288 520.528099,29 532.461187,29 C536.796064,29 540.302879,29.9154838 542.981735,31.7464789 C545.660592,33.5774739 547,35.9577318 547,38.8873239 C547,44.7465082 542.226836,49.7816691 532.680365,53.9929577 C523.133894,58.2042464 511.736748,60.3098592 498.488584,60.3098592 L498.415525,62.3697183 C498.415525,71.280561 503.627041,75.7359155 514.050228,75.7359155 C523.060928,75.7359155 534.044075,72.9436899 547,67.3591549 Z M499,58 C509.980447,57.4472141 518.558793,55.6737194 524.735294,52.6794626 C530.911796,49.6852058 534,45.8080852 534,41.0479846 C534,36.3493047 531.279439,34 525.838235,34 C519.955853,34 514.269635,36.4491118 508.779412,41.3474088 C503.289188,46.2457059 500.029417,51.7965141 499,58 Z M565.830313,81 L571.194399,66.7382012 L578.2257,44.0952805 C578.95058,41.8109117 579.313015,39.835271 579.313015,38.1682992 C579.313015,35.5134922 577.863276,34.1861086 574.963756,34.1861086 C569.84127,34.1861086 562.520092,37.6743492 553,44.650935 L554.304778,40.5298308 C565.467931,32.8432385 575.157015,29 583.372323,29 C590.331172,29 593.810544,31.5467243 593.810544,36.6402493 C593.810544,38.8937483 593.375622,41.3941685 592.505766,44.141585 L589.026359,55.3009795 L589.968699,55.3009795 C595.719414,47.5835174 602.521103,41.2784454 610.37397,36.3855744 C618.226838,31.4927033 625.415124,29.0463045 631.939044,29.0463045 C635.321818,29.0463045 638.342106,29.52478 641,30.4817453 L631.359143,38.8165628 C628.507948,37.6126387 626.091718,37.0106857 624.110379,37.0106857 C614.686938,37.0106857 602.146701,45.8547646 586.489292,63.5431879 L581.197694,80.4443455 L565.830313,81 Z M671,79.8538206 L681.88813,73.0684385 L686.751494,73.0684385 C692.268174,73.0684385 696.345133,71.9299117 698.982494,69.6528239 C701.619854,67.3757361 703.978925,62.8903989 706.059778,56.1966777 L717.891546,18.7853821 L698.220325,18.7853821 L708.745517,12 L756,12 L744.966695,18.7853821 L733.134927,18.7853821 L722.900085,51.2451827 C719.75461,61.1787872 711.624888,68.6823667 698.510675,73.7561462 L726.747225,74.2146179 L716.29462,81 L671,79.8538206 Z M752.769705,80.4044053 L758.14599,66.2933921 L765.265936,43.660793 C766.379946,40.1482937 766.936943,37.8575678 766.936943,36.7885463 C766.936943,34.894851 765.508125,33.9480176 762.650446,33.9480176 C757.903792,33.9480176 750.687049,37.2924776 741,43.9814978 L742.307745,39.7665198 C752.866628,32.5888041 762.384011,29 770.860178,29 C777.834853,29 781.322138,31.290726 781.322138,35.8722467 C781.322138,37.4299637 780.765142,40.0261199 779.651131,43.660793 L776.091158,54.9770925 L777.180946,54.9770925 C783.235351,47.1579638 790.076727,40.8737389 797.705278,36.1242291 C805.333828,31.3747193 812.441594,29 819.028787,29 C826.972167,29 830.943797,31.7794142 830.943797,37.338326 C830.943797,39.1403908 830.532104,41.3394878 829.708705,43.9356828 L822.661412,66.2933921 C821.547401,69.8364347 820.990404,72.1271607 820.990404,73.1656388 C820.990404,75.0898775 822.419223,76.0519824 825.276902,76.0519824 C830.120426,76.0519824 837.361387,72.6922509 847,65.9726872 L845.619602,70.2334802 C835.060719,77.4111959 825.543337,81 817.067169,81 C810.092494,81 806.605209,78.6940025 806.605209,74.0819383 C806.605209,72.5547648 807.186423,69.9586086 808.348869,66.2933921 L815.396162,43.8440529 C815.977385,42.103075 816.267992,40.6370104 816.267992,39.445815 C816.267992,36.9717938 814.814956,35.7348018 811.908842,35.7348018 C802.65771,35.7348018 789.822563,44.9893348 773.403016,63.4986784 L768.099383,79.8546256 L752.769705,80.4044053 Z M840,78.2969163 L849.484163,72.1118943 C855.758704,75.0135241 862.153814,76.4643172 868.669683,76.4643172 C872.675736,76.4643172 876.054285,75.8000066 878.80543,74.4713656 C881.556575,73.1427246 882.932127,71.5010377 882.932127,69.5462555 C882.932127,67.377669 880.205155,64.4149968 874.751131,60.6581498 L868.162896,56.076652 C861.743558,51.6173052 858.533937,47.8910576 858.533937,44.8977974 C858.533937,40.7438853 861.647028,37.0558164 867.873303,33.8334802 C874.099579,30.6111439 881.218663,29 889.230769,29 C893.622948,29 898.545976,29.5803173 904,30.7409692 L900.81448,40.8660793 L896.253394,40.8660793 L896.470588,40.0872247 C896.56712,39.8123334 896.615385,39.4916318 896.615385,39.1251101 C896.615385,35.0017415 892.416332,32.9400881 884.0181,32.9400881 C874.606288,32.9400881 869.900452,35.3224431 869.900452,40.0872247 C869.900452,42.5001589 872.699821,45.7071753 878.298643,49.70837 L884.235294,53.877533 C890.702898,58.4895972 893.936652,62.2769309 893.936652,65.2396476 C893.936652,69.3324727 890.509838,72.9823628 883.656109,76.1894273 C876.802379,79.3964918 869.007585,81 860.271493,81 C854.141749,81 847.384652,80.0989811 840,78.2969163 Z M962,65.9726872 L960.69289,70.2334802 C950.090719,77.4111959 940.577954,81 932.154312,81 C925.183021,81 921.697428,78.6940025 921.697428,74.0819383 C921.697428,72.5242213 922.254155,69.9586082 923.367625,66.385022 L928.378215,50.4414097 C929.733744,45.9209759 930.411498,42.9124891 930.411498,41.415859 C930.411498,38.8502074 928.83814,37.5674009 925.691377,37.5674009 C923.512848,37.5674009 919.615762,38.1019036 914,39.1709251 L914.871407,36.3303965 L950.381241,29 L944.86233,43.660793 L937.74584,66.2933921 C936.63237,69.8364347 936.075643,72.0966177 936.075643,73.0740088 C936.075643,75.0593344 937.503768,76.0519824 940.360061,76.0519824 C945.152823,76.0519824 952.366064,72.6922509 962,65.9726872 Z M935,22 L939.799427,15.625 L960,7 L953.839542,15.625 L935,22 Z M971.846325,79.6836735 C966.025955,77.8469296 963.115813,74.158191 963.115813,68.6173469 C963.115813,59.5560771 968.936096,50.8010627 980.576837,42.3520408 C991.878057,34.1173058 1005.91949,30 1022.70156,30 C1025.90276,30 1032.66884,30.1836716 1043,30.5510204 L1037.83445,44.1428571 L1034.415,54.7959184 C1032.66889,60.3979872 1031.48058,64.5305989 1030.85004,67.1938776 C1028.18237,78.0612788 1025.50261,85.5994687 1022.81069,89.8086735 C1020.11877,94.0178782 1015.35341,98.1428369 1008.51448,102.183673 C998.474337,108.061254 986.906524,111 973.81069,111 C965.274147,111 958.338309,109.951541 953.00297,107.854592 C947.66763,105.757643 945,103.025527 945,99.6581633 C945,92.9234357 953.948686,86.265339 971.846325,79.6836735 Z M1026,37.7038778 C1020.14631,35.9012836 1014.3171,35 1008.5122,35 C1002.02436,35 996.536608,36.8178432 992.04878,40.453584 C988.487787,43.3255138 985.256112,47.5646018 982.353659,53.1709753 C979.451205,58.7773488 978,63.5663726 978,67.5381904 C978,71.846085 980.17071,74 984.512195,74 C994.121999,74 1006.87797,65.30796 1022.78049,47.9236193 L1026,37.7038778 Z M1020,55 L1018.84223,55 C1013.72872,62.2544144 1007.60225,68.0887283 1000.46263,72.5031167 C993.323017,76.917505 985.821708,79.5105334 977.958482,80.2822796 C965.319431,85.8697222 959,91.055779 959,95.8406055 C959,98.9275904 961.351697,101.559206 966.05516,103.73553 C970.758624,105.911854 976.462995,107 983.168446,107 C991.803523,107 998.617413,104.84686 1003.61032,100.540516 C1008.60323,96.2341726 1012.16092,89.4351904 1014.28351,80.143366 L1020,55 Z M1049,81.4001125 L1054.36728,67.1873945 L1064.30401,35.3010692 C1067.78551,24.1646414 1074.34949,15.4971235 1083.99614,9.29825549 C1093.6428,3.0993875 1105.38059,0 1119.20988,0 C1123.99694,0 1128.34875,0.323013089 1132.26543,0.969048959 L1122.3287,7.56781092 C1116.67127,5.93733944 1111.83593,5.12211593 1107.82253,5.12211593 C1100.13422,5.12211593 1094.35599,6.89868792 1090.48765,10.4518852 C1086.61932,14.0050825 1083.13788,20.765285 1080.04321,30.7326956 L1072.20988,55.7895329 L1073.37037,55.7895329 C1079.36629,47.914048 1086.18412,41.5845296 1093.82407,36.8007878 C1101.46403,32.017046 1108.54781,29.625211 1115.07562,29.625211 C1123.05405,29.625211 1127.04321,32.4246578 1127.04321,38.0236353 C1127.04321,39.8694521 1126.63221,42.084399 1125.81019,44.6685425 L1118.77469,67.1873945 C1117.66255,70.72521 1117.10648,73.0324463 1117.10648,74.1091728 C1117.10648,76.0472804 1118.53291,77.0163196 1121.3858,77.0163196 C1126.22122,77.0163196 1133.42588,73.632373 1143,66.8643782 L1141.69444,71.1558807 C1131.10489,78.3853297 1121.60344,82 1113.18981,82 C1106.22682,82 1102.74537,79.6773821 1102.74537,75.0320765 C1102.74537,73.4938959 1103.30143,70.879028 1104.41358,67.1873945 L1111.5216,44.5762521 C1112.0535,42.8227262 1112.31944,41.3460949 1112.31944,40.146314 C1112.31944,37.6544614 1110.86884,36.4085537 1107.96759,36.4085537 C1098.7803,36.4085537 1085.96665,45.7297886 1069.52623,64.372538 L1064.30401,80.8463703 L1049,81.4001125 Z M1164.51711,33.6024931 L1148,33.6024931 L1152.97677,30.2202216 L1165.52689,30.2202216 L1169.63814,17.2853186 L1184.56846,15 L1179.80807,30.2202216 L1207,30.2202216 L1201.08557,34.2423823 C1194.88261,33.8157873 1189.37696,33.6024931 1184.56846,33.6024931 L1178.72616,33.6024931 L1168.91687,64.9113573 C1167.90709,68.1412904 1167.4022,70.4113508 1167.4022,71.7216066 C1167.4022,74.1288209 1169.08515,75.33241 1172.4511,75.33241 C1177.64428,75.33241 1184.73671,72.8947612 1193.72861,68.0193906 L1192.43032,72.2243767 C1183.10183,78.0748215 1174.13411,81 1165.52689,81 C1157.35244,81 1153.26528,78.1357627 1153.26528,72.4072022 C1153.26528,70.3656408 1153.79421,67.6537565 1154.85208,64.2714681 L1164.51711,33.6024931 Z" id="Outsider-Insight"></path>
            </g>
        </g>
    </g>
</svg>